<mxfile host="65bd71144e">
    <diagram id="z-o6kNDc8-3AqNfyh9WU" name="Page-1">
        <mxGraphModel dx="2536" dy="1133" grid="1" gridSize="10" guides="1" tooltips="1" connect="1" arrows="1" fold="1" page="1" pageScale="1" pageWidth="2336" pageHeight="1654" math="0" shadow="0">
            <root>
                <mxCell id="0"/>
                <mxCell id="1" parent="0"/>
                <mxCell id="152" value="" style="group" parent="1" vertex="1" connectable="0">
                    <mxGeometry x="80" y="280" width="330" height="150" as="geometry"/>
                </mxCell>
                <mxCell id="153" value="" style="group" parent="152" vertex="1" connectable="0">
                    <mxGeometry x="29.999999999999943" y="100" width="281.59999999999997" height="12.600000000000023" as="geometry"/>
                </mxCell>
                <mxCell id="154" value="&lt;font style=&quot;font-size: 14px&quot;&gt;&lt;b&gt;A&lt;/b&gt;&lt;/font&gt;" style="text;html=1;align=center;verticalAlign=middle;whiteSpace=wrap;rounded=0;fontColor=#97D077;" parent="153" vertex="1">
                    <mxGeometry x="131.2000000000001" width="10.2" height="12.6" as="geometry"/>
                </mxCell>
                <mxCell id="155" value="&lt;font style=&quot;font-size: 14px&quot;&gt;&lt;b&gt;A&lt;/b&gt;&lt;/font&gt;" style="text;html=1;align=center;verticalAlign=middle;whiteSpace=wrap;rounded=0;fontColor=#97D077;" parent="153" vertex="1">
                    <mxGeometry x="121.00000000000006" width="10.2" height="12.6" as="geometry"/>
                </mxCell>
                <mxCell id="156" value="&lt;font style=&quot;font-size: 14px&quot;&gt;&lt;b&gt;G&lt;/b&gt;&lt;/font&gt;" style="text;html=1;strokeColor=none;fillColor=none;align=center;verticalAlign=middle;whiteSpace=wrap;rounded=0;fontColor=#FFB570;" parent="153" vertex="1">
                    <mxGeometry x="141.39999999999992" width="10" height="12.6" as="geometry"/>
                </mxCell>
                <mxCell id="157" value="&lt;font style=&quot;font-size: 14px&quot;&gt;&lt;b&gt;C&lt;/b&gt;&lt;/font&gt;" style="text;html=1;strokeColor=none;fillColor=none;align=center;verticalAlign=middle;whiteSpace=wrap;rounded=0;fontColor=#7EA6E0;" parent="153" vertex="1">
                    <mxGeometry x="151.39999999999992" width="10" height="12.6" as="geometry"/>
                </mxCell>
                <mxCell id="158" value="" style="group" parent="153" connectable="0" vertex="1">
                    <mxGeometry x="171.39999999999992" width="50.39999999999998" height="12.600000000000023" as="geometry"/>
                </mxCell>
                <mxCell id="159" value="&lt;font style=&quot;font-size: 14px&quot;&gt;&lt;b&gt;A&lt;/b&gt;&lt;/font&gt;" style="text;html=1;align=center;verticalAlign=middle;whiteSpace=wrap;rounded=0;fontColor=#97D077;" parent="158" vertex="1">
                    <mxGeometry x="10.199999999999989" width="10.2" height="12.6" as="geometry"/>
                </mxCell>
                <mxCell id="160" value="&lt;font style=&quot;font-size: 14px&quot;&gt;&lt;b&gt;A&lt;/b&gt;&lt;/font&gt;" style="text;html=1;align=center;verticalAlign=middle;whiteSpace=wrap;rounded=0;fontColor=#97D077;" parent="158" vertex="1">
                    <mxGeometry width="10.2" height="12.6" as="geometry"/>
                </mxCell>
                <mxCell id="161" value="&lt;font style=&quot;font-size: 14px&quot;&gt;&lt;b&gt;G&lt;/b&gt;&lt;/font&gt;" style="text;html=1;strokeColor=none;fillColor=none;align=center;verticalAlign=middle;whiteSpace=wrap;rounded=0;fontColor=#FFB570;" parent="158" vertex="1">
                    <mxGeometry x="20.399999999999977" width="10" height="12.6" as="geometry"/>
                </mxCell>
                <mxCell id="162" value="&lt;font style=&quot;font-size: 14px&quot;&gt;&lt;b&gt;C&lt;/b&gt;&lt;/font&gt;" style="text;html=1;strokeColor=none;fillColor=none;align=center;verticalAlign=middle;whiteSpace=wrap;rounded=0;fontColor=#7EA6E0;" parent="158" vertex="1">
                    <mxGeometry x="30.399999999999977" width="10" height="12.6" as="geometry"/>
                </mxCell>
                <mxCell id="163" value="&lt;font style=&quot;font-size: 14px&quot;&gt;&lt;b&gt;U&lt;/b&gt;&lt;/font&gt;" style="text;html=1;strokeColor=none;fillColor=none;align=center;verticalAlign=middle;whiteSpace=wrap;rounded=0;fontColor=#EA6B66;" parent="158" vertex="1">
                    <mxGeometry x="40.39999999999998" width="10" height="12.6" as="geometry"/>
                </mxCell>
                <mxCell id="164" value="" style="group" parent="153" connectable="0" vertex="1">
                    <mxGeometry x="60.599999999999966" width="60.39999999999998" height="12.600000000000023" as="geometry"/>
                </mxCell>
                <mxCell id="165" value="&lt;font style=&quot;font-size: 14px&quot;&gt;&lt;b&gt;G&lt;/b&gt;&lt;/font&gt;" style="text;html=1;strokeColor=none;fillColor=none;align=center;verticalAlign=middle;whiteSpace=wrap;rounded=0;fontColor=#FFB570;" parent="164" vertex="1">
                    <mxGeometry width="10" height="12.6" as="geometry"/>
                </mxCell>
                <mxCell id="166" value="&lt;font style=&quot;font-size: 14px&quot;&gt;&lt;b&gt;C&lt;/b&gt;&lt;/font&gt;" style="text;html=1;strokeColor=none;fillColor=none;align=center;verticalAlign=middle;whiteSpace=wrap;rounded=0;fontColor=#7EA6E0;" parent="164" vertex="1">
                    <mxGeometry x="10" width="10" height="12.6" as="geometry"/>
                </mxCell>
                <mxCell id="167" value="&lt;font style=&quot;font-size: 14px&quot;&gt;&lt;b&gt;A&lt;/b&gt;&lt;/font&gt;" style="text;html=1;align=center;verticalAlign=middle;whiteSpace=wrap;rounded=0;fontColor=#97D077;" parent="164" vertex="1">
                    <mxGeometry x="40.19999999999999" width="10.2" height="12.6" as="geometry"/>
                </mxCell>
                <mxCell id="168" value="&lt;font style=&quot;font-size: 14px&quot;&gt;&lt;b&gt;A&lt;/b&gt;&lt;/font&gt;" style="text;html=1;align=center;verticalAlign=middle;whiteSpace=wrap;rounded=0;fontColor=#97D077;" parent="164" vertex="1">
                    <mxGeometry x="30" width="10.2" height="12.6" as="geometry"/>
                </mxCell>
                <mxCell id="169" value="&lt;font style=&quot;font-size: 14px&quot;&gt;&lt;b&gt;G&lt;/b&gt;&lt;/font&gt;" style="text;html=1;strokeColor=none;fillColor=none;align=center;verticalAlign=middle;whiteSpace=wrap;rounded=0;fontColor=#FFB570;" parent="164" vertex="1">
                    <mxGeometry x="50.39999999999998" width="10" height="12.6" as="geometry"/>
                </mxCell>
                <mxCell id="170" value="&lt;font style=&quot;font-size: 14px&quot;&gt;&lt;b&gt;U&lt;/b&gt;&lt;/font&gt;" style="text;html=1;strokeColor=none;fillColor=none;align=center;verticalAlign=middle;whiteSpace=wrap;rounded=0;fontColor=#EA6B66;" parent="164" vertex="1">
                    <mxGeometry x="20.000000000000057" width="10" height="12.6" as="geometry"/>
                </mxCell>
                <mxCell id="171" value="" style="group" parent="153" connectable="0" vertex="1">
                    <mxGeometry x="221.2" width="60.39999999999998" height="12.600000000000023" as="geometry"/>
                </mxCell>
                <mxCell id="172" value="&lt;font style=&quot;font-size: 14px&quot;&gt;&lt;b&gt;A&lt;/b&gt;&lt;/font&gt;" style="text;html=1;align=center;verticalAlign=middle;whiteSpace=wrap;rounded=0;fontColor=#97D077;" parent="171" vertex="1">
                    <mxGeometry x="40.19999999999999" width="10.2" height="12.6" as="geometry"/>
                </mxCell>
                <mxCell id="173" value="&lt;font style=&quot;font-size: 14px&quot;&gt;&lt;b&gt;A&lt;/b&gt;&lt;/font&gt;" style="text;html=1;align=center;verticalAlign=middle;whiteSpace=wrap;rounded=0;fontColor=#97D077;" parent="171" vertex="1">
                    <mxGeometry x="30" width="10.2" height="12.6" as="geometry"/>
                </mxCell>
                <mxCell id="174" value="&lt;font style=&quot;font-size: 14px&quot;&gt;&lt;b&gt;G&lt;/b&gt;&lt;/font&gt;" style="text;html=1;strokeColor=none;fillColor=none;align=center;verticalAlign=middle;whiteSpace=wrap;rounded=0;fontColor=#FFB570;" parent="171" vertex="1">
                    <mxGeometry x="50.39999999999998" width="10" height="12.6" as="geometry"/>
                </mxCell>
                <mxCell id="175" value="&lt;font style=&quot;font-size: 14px&quot;&gt;&lt;b&gt;U&lt;/b&gt;&lt;/font&gt;" style="text;html=1;strokeColor=none;fillColor=none;align=center;verticalAlign=middle;whiteSpace=wrap;rounded=0;fontColor=#EA6B66;" parent="171" vertex="1">
                    <mxGeometry x="-2.842170943040401e-14" width="10" height="12.6" as="geometry"/>
                </mxCell>
                <mxCell id="176" value="&lt;font style=&quot;font-size: 14px&quot;&gt;&lt;b&gt;U&lt;/b&gt;&lt;/font&gt;" style="text;html=1;strokeColor=none;fillColor=none;align=center;verticalAlign=middle;whiteSpace=wrap;rounded=0;fontColor=#EA6B66;" parent="171" vertex="1">
                    <mxGeometry x="10" width="10" height="12.6" as="geometry"/>
                </mxCell>
                <mxCell id="177" value="&lt;font style=&quot;font-size: 14px&quot;&gt;&lt;b&gt;U&lt;/b&gt;&lt;/font&gt;" style="text;html=1;strokeColor=none;fillColor=none;align=center;verticalAlign=middle;whiteSpace=wrap;rounded=0;fontColor=#EA6B66;" parent="171" vertex="1">
                    <mxGeometry x="20" width="10" height="12.6" as="geometry"/>
                </mxCell>
                <mxCell id="178" value="&lt;font style=&quot;font-size: 14px&quot;&gt;&lt;b&gt;U&lt;/b&gt;&lt;/font&gt;" style="text;html=1;strokeColor=none;fillColor=none;align=center;verticalAlign=middle;whiteSpace=wrap;rounded=0;fontColor=#EA6B66;" parent="153" vertex="1">
                    <mxGeometry x="161.39999999999992" width="10" height="12.6" as="geometry"/>
                </mxCell>
                <mxCell id="179" value="&lt;font style=&quot;font-size: 14px&quot;&gt;&lt;b&gt;A&lt;/b&gt;&lt;/font&gt;" style="text;html=1;align=center;verticalAlign=middle;whiteSpace=wrap;rounded=0;fontColor=#97D077;" parent="153" vertex="1">
                    <mxGeometry x="10.199999999999989" width="10.2" height="12.6" as="geometry"/>
                </mxCell>
                <mxCell id="180" value="&lt;font style=&quot;font-size: 14px&quot;&gt;&lt;b&gt;A&lt;/b&gt;&lt;/font&gt;" style="text;html=1;align=center;verticalAlign=middle;whiteSpace=wrap;rounded=0;fontColor=#97D077;" parent="153" vertex="1">
                    <mxGeometry width="10.2" height="12.6" as="geometry"/>
                </mxCell>
                <mxCell id="181" value="&lt;font style=&quot;font-size: 14px&quot;&gt;&lt;b&gt;G&lt;/b&gt;&lt;/font&gt;" style="text;html=1;strokeColor=none;fillColor=none;align=center;verticalAlign=middle;whiteSpace=wrap;rounded=0;fontColor=#FFB570;" parent="153" vertex="1">
                    <mxGeometry x="20.399999999999977" width="10" height="12.6" as="geometry"/>
                </mxCell>
                <mxCell id="182" value="&lt;font style=&quot;font-size: 14px&quot;&gt;&lt;b&gt;C&lt;/b&gt;&lt;/font&gt;" style="text;html=1;strokeColor=none;fillColor=none;align=center;verticalAlign=middle;whiteSpace=wrap;rounded=0;fontColor=#7EA6E0;" parent="153" vertex="1">
                    <mxGeometry x="30.399999999999977" width="10" height="12.6" as="geometry"/>
                </mxCell>
                <mxCell id="183" value="&lt;font style=&quot;font-size: 14px&quot;&gt;&lt;b&gt;A&lt;/b&gt;&lt;/font&gt;" style="text;html=1;align=center;verticalAlign=middle;whiteSpace=wrap;rounded=0;fontColor=#97D077;" parent="153" vertex="1">
                    <mxGeometry x="50.39999999999998" width="10.2" height="12.6" as="geometry"/>
                </mxCell>
                <mxCell id="184" value="&lt;font style=&quot;font-size: 14px&quot;&gt;&lt;b&gt;U&lt;/b&gt;&lt;/font&gt;" style="text;html=1;strokeColor=none;fillColor=none;align=center;verticalAlign=middle;whiteSpace=wrap;rounded=0;fontColor=#EA6B66;" parent="153" vertex="1">
                    <mxGeometry x="40.400000000000034" width="10" height="12.6" as="geometry"/>
                </mxCell>
                <mxCell id="185" style="edgeStyle=none;html=1;exitX=0.5;exitY=0;exitDx=0;exitDy=0;fontColor=#FF6666;endArrow=none;endFill=0;strokeWidth=2;strokeColor=#4D4D4D;" parent="152" source="180" edge="1">
                    <mxGeometry relative="1" as="geometry">
                        <mxPoint x="35" y="70" as="targetPoint"/>
                    </mxGeometry>
                </mxCell>
                <mxCell id="186" style="edgeStyle=none;html=1;exitX=0.5;exitY=0;exitDx=0;exitDy=0;fontColor=#FF6666;endArrow=none;endFill=0;strokeWidth=2;strokeColor=#4D4D4D;" parent="152" source="179" edge="1">
                    <mxGeometry relative="1" as="geometry">
                        <mxPoint x="45" y="90" as="targetPoint"/>
                    </mxGeometry>
                </mxCell>
                <mxCell id="187" style="edgeStyle=none;html=1;exitX=0.5;exitY=0;exitDx=0;exitDy=0;fontColor=#FF6666;endArrow=none;endFill=0;strokeWidth=2;strokeColor=#4D4D4D;" parent="152" source="181" edge="1">
                    <mxGeometry relative="1" as="geometry">
                        <mxPoint x="55.358974358974365" y="80" as="targetPoint"/>
                    </mxGeometry>
                </mxCell>
                <mxCell id="188" style="edgeStyle=none;html=1;exitX=0.5;exitY=0;exitDx=0;exitDy=0;fontColor=#FF6666;endArrow=none;endFill=0;strokeWidth=2;strokeColor=#4D4D4D;" parent="152" source="184" edge="1">
                    <mxGeometry relative="1" as="geometry">
                        <mxPoint x="75.35897435897436" y="30" as="targetPoint"/>
                    </mxGeometry>
                </mxCell>
                <mxCell id="189" style="edgeStyle=none;html=1;exitX=0.5;exitY=0;exitDx=0;exitDy=0;fontColor=#FF6666;endArrow=none;endFill=0;strokeWidth=2;strokeColor=#4D4D4D;" parent="152" source="183" edge="1">
                    <mxGeometry relative="1" as="geometry">
                        <mxPoint x="85.61538461538464" y="40" as="targetPoint"/>
                    </mxGeometry>
                </mxCell>
                <mxCell id="190" style="edgeStyle=none;html=1;exitX=0.5;exitY=0;exitDx=0;exitDy=0;fontColor=#FF6666;endArrow=none;endFill=0;strokeWidth=2;strokeColor=#4D4D4D;" parent="152" source="165" edge="1">
                    <mxGeometry relative="1" as="geometry">
                        <mxPoint x="95.61538461538464" y="30" as="targetPoint"/>
                    </mxGeometry>
                </mxCell>
                <mxCell id="191" style="edgeStyle=none;html=1;exitX=0.5;exitY=0;exitDx=0;exitDy=0;fontColor=#FF6666;endArrow=none;endFill=0;strokeWidth=2;strokeColor=#4D4D4D;" parent="152" source="166" edge="1">
                    <mxGeometry relative="1" as="geometry">
                        <mxPoint x="106" y="20" as="targetPoint"/>
                    </mxGeometry>
                </mxCell>
                <mxCell id="192" style="edgeStyle=none;html=1;exitX=0.5;exitY=0;exitDx=0;exitDy=0;fontColor=#FF6666;endArrow=none;endFill=0;strokeWidth=2;strokeColor=#4D4D4D;" parent="152" source="169" edge="1">
                    <mxGeometry relative="1" as="geometry">
                        <mxPoint x="145.87179487179492" y="90" as="targetPoint"/>
                    </mxGeometry>
                </mxCell>
                <mxCell id="193" style="edgeStyle=none;html=1;exitX=0.5;exitY=0;exitDx=0;exitDy=0;fontColor=#FF6666;endArrow=none;endFill=0;strokeWidth=2;strokeColor=#4D4D4D;" parent="152" source="155" edge="1">
                    <mxGeometry relative="1" as="geometry">
                        <mxPoint x="156.1282051282052" y="70" as="targetPoint"/>
                    </mxGeometry>
                </mxCell>
                <mxCell id="194" style="edgeStyle=none;html=1;exitX=0.5;exitY=0;exitDx=0;exitDy=0;fontColor=#FF6666;endArrow=none;endFill=0;strokeWidth=2;strokeColor=#4D4D4D;" parent="152" source="154" edge="1">
                    <mxGeometry relative="1" as="geometry">
                        <mxPoint x="166" y="40" as="targetPoint"/>
                    </mxGeometry>
                </mxCell>
                <mxCell id="195" style="edgeStyle=none;html=1;exitX=0.5;exitY=0;exitDx=0;exitDy=0;fontColor=#FF6666;endArrow=none;endFill=0;strokeWidth=2;strokeColor=#4D4D4D;" parent="152" source="156" edge="1">
                    <mxGeometry relative="1" as="geometry">
                        <mxPoint x="176" y="40" as="targetPoint"/>
                    </mxGeometry>
                </mxCell>
                <mxCell id="196" style="edgeStyle=none;html=1;exitX=0.5;exitY=0;exitDx=0;exitDy=0;fontColor=#FF6666;endArrow=none;endFill=0;strokeWidth=2;strokeColor=#4D4D4D;" parent="152" source="157" edge="1">
                    <mxGeometry relative="1" as="geometry">
                        <mxPoint x="186.38461538461536" y="90" as="targetPoint"/>
                    </mxGeometry>
                </mxCell>
                <mxCell id="197" style="edgeStyle=none;html=1;exitX=0.5;exitY=0;exitDx=0;exitDy=0;fontColor=#FF6666;endArrow=none;endFill=0;strokeWidth=2;strokeColor=#4D4D4D;" parent="152" source="160" edge="1">
                    <mxGeometry relative="1" as="geometry">
                        <mxPoint x="206.55555555555543" y="80" as="targetPoint"/>
                    </mxGeometry>
                </mxCell>
                <mxCell id="198" style="edgeStyle=none;html=1;exitX=0.5;exitY=0;exitDx=0;exitDy=0;fontColor=#FF6666;endArrow=none;endFill=0;strokeWidth=2;strokeColor=#4D4D4D;" parent="152" source="159" edge="1">
                    <mxGeometry relative="1" as="geometry">
                        <mxPoint x="216.83333333333326" y="90" as="targetPoint"/>
                    </mxGeometry>
                </mxCell>
                <mxCell id="199" style="edgeStyle=none;html=1;exitX=0.5;exitY=0;exitDx=0;exitDy=0;fontColor=#FF6666;endArrow=none;endFill=0;strokeWidth=2;strokeColor=#4D4D4D;" parent="152" source="161" edge="1">
                    <mxGeometry relative="1" as="geometry">
                        <mxPoint x="226.83333333333326" y="80" as="targetPoint"/>
                    </mxGeometry>
                </mxCell>
                <mxCell id="200" style="edgeStyle=none;html=1;exitX=0.5;exitY=0;exitDx=0;exitDy=0;fontColor=#FF6666;endArrow=none;endFill=0;strokeWidth=2;strokeColor=#4D4D4D;" parent="152" source="162" edge="1">
                    <mxGeometry relative="1" as="geometry">
                        <mxPoint x="236.83333333333326" y="60" as="targetPoint"/>
                    </mxGeometry>
                </mxCell>
                <mxCell id="201" style="edgeStyle=none;html=1;exitX=0.5;exitY=0;exitDx=0;exitDy=0;fontColor=#FF6666;endArrow=none;endFill=0;strokeWidth=2;strokeColor=#4D4D4D;" parent="152" source="163" edge="1">
                    <mxGeometry relative="1" as="geometry">
                        <mxPoint x="246.83333333333326" y="90" as="targetPoint"/>
                    </mxGeometry>
                </mxCell>
                <mxCell id="202" style="edgeStyle=none;html=1;exitX=0.5;exitY=0;exitDx=0;exitDy=0;fontColor=#FF6666;endArrow=none;endFill=0;strokeWidth=2;strokeColor=#4D4D4D;" parent="152" source="176" edge="1">
                    <mxGeometry relative="1" as="geometry">
                        <mxPoint x="266.2777777777778" y="90" as="targetPoint"/>
                    </mxGeometry>
                </mxCell>
                <mxCell id="203" style="edgeStyle=none;html=1;exitX=0.5;exitY=0;exitDx=0;exitDy=0;fontColor=#FF6666;endArrow=none;endFill=0;strokeWidth=2;strokeColor=#4D4D4D;" parent="152" source="177" edge="1">
                    <mxGeometry relative="1" as="geometry">
                        <mxPoint x="276.2777777777778" y="70" as="targetPoint"/>
                    </mxGeometry>
                </mxCell>
                <mxCell id="204" style="edgeStyle=none;html=1;exitX=0.5;exitY=0;exitDx=0;exitDy=0;fontColor=#FF6666;endArrow=none;endFill=0;strokeWidth=2;strokeColor=#4D4D4D;" parent="152" source="173" edge="1">
                    <mxGeometry relative="1" as="geometry">
                        <mxPoint x="286.2777777777778" y="90" as="targetPoint"/>
                    </mxGeometry>
                </mxCell>
                <mxCell id="205" style="edgeStyle=none;html=1;exitX=0.5;exitY=0;exitDx=0;exitDy=0;fontColor=#FF6666;endArrow=none;endFill=0;strokeWidth=2;strokeColor=#4D4D4D;" parent="152" source="172" edge="1">
                    <mxGeometry relative="1" as="geometry">
                        <mxPoint x="296.55555555555543" y="90" as="targetPoint"/>
                    </mxGeometry>
                </mxCell>
                <mxCell id="206" style="edgeStyle=none;html=1;exitX=0.5;exitY=0;exitDx=0;exitDy=0;fontColor=#FF6666;endArrow=none;endFill=0;strokeWidth=2;strokeColor=#4D4D4D;" parent="152" source="174" edge="1">
                    <mxGeometry relative="1" as="geometry">
                        <mxPoint x="306.55555555555543" y="80" as="targetPoint"/>
                    </mxGeometry>
                </mxCell>
                <mxCell id="207" style="edgeStyle=none;html=1;exitX=0.5;exitY=1;exitDx=0;exitDy=0;fontColor=#FF6666;endArrow=none;endFill=0;strokeWidth=2;strokeColor=#4D4D4D;" parent="152" source="182" edge="1">
                    <mxGeometry relative="1" as="geometry">
                        <mxPoint x="65.33333333333326" y="130" as="targetPoint"/>
                    </mxGeometry>
                </mxCell>
                <mxCell id="208" style="edgeStyle=none;html=1;exitX=0.5;exitY=1;exitDx=0;exitDy=0;fontColor=#FF6666;endArrow=none;endFill=0;strokeWidth=2;strokeColor=#4D4D4D;" parent="152" source="168" edge="1">
                    <mxGeometry relative="1" as="geometry">
                        <mxPoint x="126" y="140" as="targetPoint"/>
                    </mxGeometry>
                </mxCell>
                <mxCell id="209" style="edgeStyle=none;html=1;exitX=0.5;exitY=1;exitDx=0;exitDy=0;fontColor=#FF6666;endArrow=none;endFill=0;strokeWidth=2;strokeColor=#4D4D4D;" parent="152" source="178" edge="1">
                    <mxGeometry relative="1" as="geometry">
                        <mxPoint x="196.33333333333326" y="130" as="targetPoint"/>
                    </mxGeometry>
                </mxCell>
                <mxCell id="210" style="edgeStyle=none;html=1;exitX=0.5;exitY=1;exitDx=0;exitDy=0;fontColor=#FF6666;endArrow=none;endFill=0;strokeWidth=2;strokeColor=#4D4D4D;" parent="152" source="175" edge="1">
                    <mxGeometry relative="1" as="geometry">
                        <mxPoint x="256.33333333333326" y="150" as="targetPoint"/>
                    </mxGeometry>
                </mxCell>
                <mxCell id="211" style="edgeStyle=none;html=1;exitX=0.5;exitY=0;exitDx=0;exitDy=0;fontColor=#FF6666;endArrow=none;endFill=0;strokeWidth=2;strokeColor=#4D4D4D;" parent="152" source="170" edge="1">
                    <mxGeometry relative="1" as="geometry">
                        <mxPoint x="115.66666666666674" y="40" as="targetPoint"/>
                    </mxGeometry>
                </mxCell>
                <mxCell id="212" style="edgeStyle=none;html=1;exitX=0.5;exitY=1;exitDx=0;exitDy=0;fontColor=#FF6666;endArrow=none;endFill=0;strokeWidth=2;strokeColor=#4D4D4D;" parent="152" source="167" edge="1">
                    <mxGeometry relative="1" as="geometry">
                        <mxPoint x="136" y="120" as="targetPoint"/>
                    </mxGeometry>
                </mxCell>
                <mxCell id="213" value="" style="endArrow=blockThin;html=1;strokeWidth=1;fontColor=#FF6666;endFill=1;" parent="152" edge="1">
                    <mxGeometry width="50" height="50" relative="1" as="geometry">
                        <mxPoint x="29" y="118" as="sourcePoint"/>
                        <mxPoint x="29" as="targetPoint"/>
                    </mxGeometry>
                </mxCell>
                <mxCell id="214" value="" style="endArrow=blockThin;html=1;strokeColor=#000000;strokeWidth=1;fontColor=#FF6666;endFill=1;" parent="152" edge="1">
                    <mxGeometry width="50" height="50" relative="1" as="geometry">
                        <mxPoint x="23" y="111.60000000000002" as="sourcePoint"/>
                        <mxPoint x="330" y="112" as="targetPoint"/>
                    </mxGeometry>
                </mxCell>
                <mxCell id="215" value="Scores" style="text;html=1;strokeColor=none;fillColor=none;align=center;verticalAlign=middle;whiteSpace=wrap;rounded=0;fontColor=#000000;rotation=-90;fontSize=13;" parent="152" vertex="1">
                    <mxGeometry x="-40" y="50" width="100" height="20" as="geometry"/>
                </mxCell>
                <mxCell id="216" value="" style="endArrow=none;html=1;strokeColor=#b85450;strokeWidth=4;fontSize=11;fontColor=#000000;fillColor=#f8cecc;" parent="1" edge="1">
                    <mxGeometry width="50" height="50" relative="1" as="geometry">
                        <mxPoint x="662" y="305" as="sourcePoint"/>
                        <mxPoint x="680" y="305" as="targetPoint"/>
                    </mxGeometry>
                </mxCell>
                <mxCell id="36" value="" style="group;" parent="1" vertex="1" connectable="0">
                    <mxGeometry x="590" y="390" width="281.59999999999997" height="12.600000000000023" as="geometry"/>
                </mxCell>
                <mxCell id="4" value="&lt;font style=&quot;font-size: 14px&quot;&gt;&lt;b&gt;A&lt;/b&gt;&lt;/font&gt;" style="text;html=1;align=center;verticalAlign=middle;whiteSpace=wrap;rounded=0;fontColor=#97D077;" parent="36" vertex="1">
                    <mxGeometry x="131.2000000000001" width="10.2" height="12.6" as="geometry"/>
                </mxCell>
                <mxCell id="5" value="&lt;font style=&quot;font-size: 14px&quot;&gt;&lt;b&gt;A&lt;/b&gt;&lt;/font&gt;" style="text;html=1;align=center;verticalAlign=middle;whiteSpace=wrap;rounded=0;fontColor=#97D077;" parent="36" vertex="1">
                    <mxGeometry x="121.00000000000006" width="10.2" height="12.6" as="geometry"/>
                </mxCell>
                <mxCell id="6" value="&lt;font style=&quot;font-size: 14px&quot;&gt;&lt;b&gt;G&lt;/b&gt;&lt;/font&gt;" style="text;html=1;strokeColor=none;fillColor=none;align=center;verticalAlign=middle;whiteSpace=wrap;rounded=0;fontColor=#FFB570;" parent="36" vertex="1">
                    <mxGeometry x="141.39999999999992" width="10" height="12.6" as="geometry"/>
                </mxCell>
                <mxCell id="7" value="&lt;font style=&quot;font-size: 14px&quot;&gt;&lt;b&gt;C&lt;/b&gt;&lt;/font&gt;" style="text;html=1;strokeColor=none;fillColor=none;align=center;verticalAlign=middle;whiteSpace=wrap;rounded=0;fontColor=#7EA6E0;" parent="36" vertex="1">
                    <mxGeometry x="151.39999999999992" width="10" height="12.6" as="geometry"/>
                </mxCell>
                <mxCell id="8" value="" style="group;" parent="36" connectable="0" vertex="1">
                    <mxGeometry x="171.39999999999992" width="50.39999999999998" height="12.600000000000023" as="geometry"/>
                </mxCell>
                <mxCell id="9" value="&lt;font style=&quot;font-size: 14px&quot;&gt;&lt;b&gt;A&lt;/b&gt;&lt;/font&gt;" style="text;html=1;align=center;verticalAlign=middle;whiteSpace=wrap;rounded=0;fontColor=#97D077;" parent="8" vertex="1">
                    <mxGeometry x="10.199999999999989" width="10.2" height="12.6" as="geometry"/>
                </mxCell>
                <mxCell id="10" value="&lt;font style=&quot;font-size: 14px&quot;&gt;&lt;b&gt;A&lt;/b&gt;&lt;/font&gt;" style="text;html=1;align=center;verticalAlign=middle;whiteSpace=wrap;rounded=0;fontColor=#97D077;" parent="8" vertex="1">
                    <mxGeometry width="10.2" height="12.6" as="geometry"/>
                </mxCell>
                <mxCell id="11" value="&lt;font style=&quot;font-size: 14px&quot;&gt;&lt;b&gt;G&lt;/b&gt;&lt;/font&gt;" style="text;html=1;strokeColor=none;fillColor=none;align=center;verticalAlign=middle;whiteSpace=wrap;rounded=0;fontColor=#FFB570;" parent="8" vertex="1">
                    <mxGeometry x="20.399999999999977" width="10" height="12.6" as="geometry"/>
                </mxCell>
                <mxCell id="12" value="&lt;font style=&quot;font-size: 14px&quot;&gt;&lt;b&gt;C&lt;/b&gt;&lt;/font&gt;" style="text;html=1;strokeColor=none;fillColor=none;align=center;verticalAlign=middle;whiteSpace=wrap;rounded=0;fontColor=#7EA6E0;" parent="8" vertex="1">
                    <mxGeometry x="30.399999999999977" width="10" height="12.6" as="geometry"/>
                </mxCell>
                <mxCell id="13" value="&lt;font style=&quot;font-size: 14px&quot;&gt;&lt;b&gt;U&lt;/b&gt;&lt;/font&gt;" style="text;html=1;strokeColor=none;fillColor=none;align=center;verticalAlign=middle;whiteSpace=wrap;rounded=0;fontColor=#EA6B66;" parent="8" vertex="1">
                    <mxGeometry x="40.39999999999998" width="10" height="12.6" as="geometry"/>
                </mxCell>
                <mxCell id="14" value="" style="group;" parent="36" connectable="0" vertex="1">
                    <mxGeometry x="60.599999999999966" width="60.39999999999998" height="12.600000000000023" as="geometry"/>
                </mxCell>
                <mxCell id="15" value="&lt;font style=&quot;font-size: 14px&quot;&gt;&lt;b&gt;G&lt;/b&gt;&lt;/font&gt;" style="text;html=1;strokeColor=none;fillColor=none;align=center;verticalAlign=middle;whiteSpace=wrap;rounded=0;fontColor=#FFB570;" parent="14" vertex="1">
                    <mxGeometry width="10" height="12.6" as="geometry"/>
                </mxCell>
                <mxCell id="16" value="&lt;font style=&quot;font-size: 14px&quot;&gt;&lt;b&gt;C&lt;/b&gt;&lt;/font&gt;" style="text;html=1;strokeColor=none;fillColor=none;align=center;verticalAlign=middle;whiteSpace=wrap;rounded=0;fontColor=#7EA6E0;" parent="14" vertex="1">
                    <mxGeometry x="10" width="10" height="12.6" as="geometry"/>
                </mxCell>
                <mxCell id="17" value="&lt;font style=&quot;font-size: 14px&quot;&gt;&lt;b&gt;A&lt;/b&gt;&lt;/font&gt;" style="text;html=1;align=center;verticalAlign=middle;whiteSpace=wrap;rounded=0;fontColor=#97D077;" parent="14" vertex="1">
                    <mxGeometry x="40.19999999999999" width="10.2" height="12.6" as="geometry"/>
                </mxCell>
                <mxCell id="18" value="&lt;font style=&quot;font-size: 14px&quot;&gt;&lt;b&gt;A&lt;/b&gt;&lt;/font&gt;" style="text;html=1;align=center;verticalAlign=middle;whiteSpace=wrap;rounded=0;fontColor=#97D077;" parent="14" vertex="1">
                    <mxGeometry x="30" width="10.2" height="12.6" as="geometry"/>
                </mxCell>
                <mxCell id="19" value="&lt;font style=&quot;font-size: 14px&quot;&gt;&lt;b&gt;G&lt;/b&gt;&lt;/font&gt;" style="text;html=1;strokeColor=none;fillColor=none;align=center;verticalAlign=middle;whiteSpace=wrap;rounded=0;fontColor=#FFB570;" parent="14" vertex="1">
                    <mxGeometry x="50.39999999999998" width="10" height="12.6" as="geometry"/>
                </mxCell>
                <mxCell id="20" value="&lt;font style=&quot;font-size: 14px&quot;&gt;&lt;b&gt;U&lt;/b&gt;&lt;/font&gt;" style="text;html=1;strokeColor=none;fillColor=none;align=center;verticalAlign=middle;whiteSpace=wrap;rounded=0;fontColor=#EA6B66;" parent="14" vertex="1">
                    <mxGeometry x="20.000000000000057" width="10" height="12.6" as="geometry"/>
                </mxCell>
                <mxCell id="28" value="" style="group;" parent="36" connectable="0" vertex="1">
                    <mxGeometry x="221.2" width="60.39999999999998" height="12.600000000000023" as="geometry"/>
                </mxCell>
                <mxCell id="29" value="&lt;font style=&quot;font-size: 14px&quot;&gt;&lt;b&gt;A&lt;/b&gt;&lt;/font&gt;" style="text;html=1;align=center;verticalAlign=middle;whiteSpace=wrap;rounded=0;fontColor=#97D077;" parent="28" vertex="1">
                    <mxGeometry x="40.19999999999999" width="10.2" height="12.6" as="geometry"/>
                </mxCell>
                <mxCell id="30" value="&lt;font style=&quot;font-size: 14px&quot;&gt;&lt;b&gt;A&lt;/b&gt;&lt;/font&gt;" style="text;html=1;align=center;verticalAlign=middle;whiteSpace=wrap;rounded=0;fontColor=#97D077;" parent="28" vertex="1">
                    <mxGeometry x="30" width="10.2" height="12.6" as="geometry"/>
                </mxCell>
                <mxCell id="31" value="&lt;font style=&quot;font-size: 14px&quot;&gt;&lt;b&gt;G&lt;/b&gt;&lt;/font&gt;" style="text;html=1;strokeColor=none;fillColor=none;align=center;verticalAlign=middle;whiteSpace=wrap;rounded=0;fontColor=#FFB570;" parent="28" vertex="1">
                    <mxGeometry x="50.39999999999998" width="10" height="12.6" as="geometry"/>
                </mxCell>
                <mxCell id="32" value="&lt;font style=&quot;font-size: 14px&quot;&gt;&lt;b&gt;U&lt;/b&gt;&lt;/font&gt;" style="text;html=1;strokeColor=none;fillColor=none;align=center;verticalAlign=middle;whiteSpace=wrap;rounded=0;fontColor=#EA6B66;" parent="28" vertex="1">
                    <mxGeometry x="-2.842170943040401e-14" width="10" height="12.6" as="geometry"/>
                </mxCell>
                <mxCell id="33" value="&lt;font style=&quot;font-size: 14px&quot;&gt;&lt;b&gt;U&lt;/b&gt;&lt;/font&gt;" style="text;html=1;strokeColor=none;fillColor=none;align=center;verticalAlign=middle;whiteSpace=wrap;rounded=0;fontColor=#EA6B66;" parent="28" vertex="1">
                    <mxGeometry x="10" width="10" height="12.6" as="geometry"/>
                </mxCell>
                <mxCell id="34" value="&lt;font style=&quot;font-size: 14px&quot;&gt;&lt;b&gt;U&lt;/b&gt;&lt;/font&gt;" style="text;html=1;strokeColor=none;fillColor=none;align=center;verticalAlign=middle;whiteSpace=wrap;rounded=0;fontColor=#EA6B66;" parent="28" vertex="1">
                    <mxGeometry x="20" width="10" height="12.6" as="geometry"/>
                </mxCell>
                <mxCell id="35" value="&lt;font style=&quot;font-size: 14px&quot;&gt;&lt;b&gt;U&lt;/b&gt;&lt;/font&gt;" style="text;html=1;strokeColor=none;fillColor=none;align=center;verticalAlign=middle;whiteSpace=wrap;rounded=0;fontColor=#EA6B66;" parent="36" vertex="1">
                    <mxGeometry x="161.39999999999992" width="10" height="12.6" as="geometry"/>
                </mxCell>
                <mxCell id="22" value="&lt;font style=&quot;font-size: 14px&quot;&gt;&lt;b&gt;A&lt;/b&gt;&lt;/font&gt;" style="text;html=1;align=center;verticalAlign=middle;whiteSpace=wrap;rounded=0;fontColor=#97D077;" parent="36" vertex="1">
                    <mxGeometry x="10.199999999999989" width="10.2" height="12.6" as="geometry"/>
                </mxCell>
                <mxCell id="23" value="&lt;font style=&quot;font-size: 14px&quot;&gt;&lt;b&gt;A&lt;/b&gt;&lt;/font&gt;" style="text;html=1;align=center;verticalAlign=middle;whiteSpace=wrap;rounded=0;fontColor=#97D077;" parent="36" vertex="1">
                    <mxGeometry width="10.2" height="12.6" as="geometry"/>
                </mxCell>
                <mxCell id="24" value="&lt;font style=&quot;font-size: 14px&quot;&gt;&lt;b&gt;G&lt;/b&gt;&lt;/font&gt;" style="text;html=1;strokeColor=none;fillColor=none;align=center;verticalAlign=middle;whiteSpace=wrap;rounded=0;fontColor=#FFB570;" parent="36" vertex="1">
                    <mxGeometry x="20.399999999999977" width="10" height="12.6" as="geometry"/>
                </mxCell>
                <mxCell id="25" value="&lt;font style=&quot;font-size: 14px&quot;&gt;&lt;b&gt;C&lt;/b&gt;&lt;/font&gt;" style="text;html=1;strokeColor=none;fillColor=none;align=center;verticalAlign=middle;whiteSpace=wrap;rounded=0;fontColor=#7EA6E0;" parent="36" vertex="1">
                    <mxGeometry x="30.399999999999977" width="10" height="12.6" as="geometry"/>
                </mxCell>
                <mxCell id="26" value="&lt;font style=&quot;font-size: 14px&quot;&gt;&lt;b&gt;A&lt;/b&gt;&lt;/font&gt;" style="text;html=1;align=center;verticalAlign=middle;whiteSpace=wrap;rounded=0;fontColor=#97D077;" parent="36" vertex="1">
                    <mxGeometry x="50.39999999999998" width="10.2" height="12.6" as="geometry"/>
                </mxCell>
                <mxCell id="27" value="&lt;font style=&quot;font-size: 14px&quot;&gt;&lt;b&gt;U&lt;/b&gt;&lt;/font&gt;" style="text;html=1;strokeColor=none;fillColor=none;align=center;verticalAlign=middle;whiteSpace=wrap;rounded=0;fontColor=#EA6B66;" parent="36" vertex="1">
                    <mxGeometry x="40.400000000000034" width="10" height="12.6" as="geometry"/>
                </mxCell>
                <mxCell id="37" style="edgeStyle=none;html=1;exitX=0.5;exitY=0;exitDx=0;exitDy=0;fontColor=#FF6666;endArrow=none;endFill=0;strokeWidth=2;strokeColor=#4D4D4D;" parent="1" source="23" edge="1">
                    <mxGeometry relative="1" as="geometry">
                        <mxPoint x="595" y="360" as="targetPoint"/>
                    </mxGeometry>
                </mxCell>
                <mxCell id="38" style="edgeStyle=none;html=1;exitX=0.5;exitY=0;exitDx=0;exitDy=0;fontColor=#FF6666;endArrow=none;endFill=0;strokeWidth=2;strokeColor=#4D4D4D;" parent="1" source="22" edge="1">
                    <mxGeometry relative="1" as="geometry">
                        <mxPoint x="605" y="380" as="targetPoint"/>
                    </mxGeometry>
                </mxCell>
                <mxCell id="39" style="edgeStyle=none;html=1;exitX=0.5;exitY=0;exitDx=0;exitDy=0;fontColor=#FF6666;endArrow=none;endFill=0;strokeWidth=2;strokeColor=#4D4D4D;" parent="1" source="24" edge="1">
                    <mxGeometry relative="1" as="geometry">
                        <mxPoint x="615.3589743589744" y="370" as="targetPoint"/>
                    </mxGeometry>
                </mxCell>
                <mxCell id="41" style="edgeStyle=none;html=1;exitX=0.5;exitY=0;exitDx=0;exitDy=0;fontColor=#FF6666;endArrow=none;endFill=0;strokeWidth=2;strokeColor=#4D4D4D;" parent="1" source="27" edge="1">
                    <mxGeometry relative="1" as="geometry">
                        <mxPoint x="635.3589743589744" y="320" as="targetPoint"/>
                    </mxGeometry>
                </mxCell>
                <mxCell id="42" style="edgeStyle=none;html=1;exitX=0.5;exitY=0;exitDx=0;exitDy=0;fontColor=#FF6666;endArrow=none;endFill=0;strokeWidth=2;strokeColor=#4D4D4D;" parent="1" source="26" edge="1">
                    <mxGeometry relative="1" as="geometry">
                        <mxPoint x="645.6153846153846" y="330" as="targetPoint"/>
                    </mxGeometry>
                </mxCell>
                <mxCell id="43" style="edgeStyle=none;html=1;exitX=0.5;exitY=0;exitDx=0;exitDy=0;fontColor=#FF6666;endArrow=none;endFill=0;strokeWidth=2;strokeColor=#4D4D4D;" parent="1" source="15" edge="1">
                    <mxGeometry relative="1" as="geometry">
                        <mxPoint x="655.6153846153846" y="320" as="targetPoint"/>
                    </mxGeometry>
                </mxCell>
                <mxCell id="44" style="edgeStyle=none;html=1;exitX=0.5;exitY=0;exitDx=0;exitDy=0;fontColor=#FF6666;endArrow=none;endFill=0;strokeWidth=2;strokeColor=#4D4D4D;" parent="1" source="16" edge="1">
                    <mxGeometry relative="1" as="geometry">
                        <mxPoint x="666" y="310" as="targetPoint"/>
                    </mxGeometry>
                </mxCell>
                <mxCell id="49" style="edgeStyle=none;html=1;exitX=0.5;exitY=0;exitDx=0;exitDy=0;fontColor=#FF6666;endArrow=none;endFill=0;strokeWidth=2;strokeColor=#4D4D4D;" parent="1" source="19" edge="1">
                    <mxGeometry relative="1" as="geometry">
                        <mxPoint x="705.8717948717949" y="380" as="targetPoint"/>
                    </mxGeometry>
                </mxCell>
                <mxCell id="50" style="edgeStyle=none;html=1;exitX=0.5;exitY=0;exitDx=0;exitDy=0;fontColor=#FF6666;endArrow=none;endFill=0;strokeWidth=2;strokeColor=#4D4D4D;" parent="1" source="5" edge="1">
                    <mxGeometry relative="1" as="geometry">
                        <mxPoint x="716.1282051282052" y="360" as="targetPoint"/>
                    </mxGeometry>
                </mxCell>
                <mxCell id="51" style="edgeStyle=none;html=1;exitX=0.5;exitY=0;exitDx=0;exitDy=0;fontColor=#FF6666;endArrow=none;endFill=0;strokeWidth=2;strokeColor=#4D4D4D;" parent="1" source="4" edge="1">
                    <mxGeometry relative="1" as="geometry">
                        <mxPoint x="726" y="330" as="targetPoint"/>
                    </mxGeometry>
                </mxCell>
                <mxCell id="52" style="edgeStyle=none;html=1;exitX=0.5;exitY=0;exitDx=0;exitDy=0;fontColor=#FF6666;endArrow=none;endFill=0;strokeWidth=2;strokeColor=#4D4D4D;" parent="1" source="6" edge="1">
                    <mxGeometry relative="1" as="geometry">
                        <mxPoint x="736" y="330" as="targetPoint"/>
                    </mxGeometry>
                </mxCell>
                <mxCell id="53" style="edgeStyle=none;html=1;exitX=0.5;exitY=0;exitDx=0;exitDy=0;fontColor=#FF6666;endArrow=none;endFill=0;strokeWidth=2;strokeColor=#4D4D4D;" parent="1" source="7" edge="1">
                    <mxGeometry relative="1" as="geometry">
                        <mxPoint x="746.3846153846154" y="380" as="targetPoint"/>
                    </mxGeometry>
                </mxCell>
                <mxCell id="128" style="edgeStyle=none;html=1;exitX=0.5;exitY=0;exitDx=0;exitDy=0;fontColor=#FF6666;endArrow=none;endFill=0;strokeWidth=2;strokeColor=#4D4D4D;" parent="1" source="10" edge="1">
                    <mxGeometry relative="1" as="geometry">
                        <mxPoint x="766.5555555555554" y="370" as="targetPoint"/>
                    </mxGeometry>
                </mxCell>
                <mxCell id="129" style="edgeStyle=none;html=1;exitX=0.5;exitY=0;exitDx=0;exitDy=0;fontColor=#FF6666;endArrow=none;endFill=0;strokeWidth=2;strokeColor=#4D4D4D;" parent="1" source="9" edge="1">
                    <mxGeometry relative="1" as="geometry">
                        <mxPoint x="776.8333333333333" y="380" as="targetPoint"/>
                    </mxGeometry>
                </mxCell>
                <mxCell id="130" style="edgeStyle=none;html=1;exitX=0.5;exitY=0;exitDx=0;exitDy=0;fontColor=#FF6666;endArrow=none;endFill=0;strokeWidth=2;strokeColor=#4D4D4D;" parent="1" source="11" edge="1">
                    <mxGeometry relative="1" as="geometry">
                        <mxPoint x="786.8333333333333" y="370" as="targetPoint"/>
                    </mxGeometry>
                </mxCell>
                <mxCell id="131" style="edgeStyle=none;html=1;exitX=0.5;exitY=0;exitDx=0;exitDy=0;fontColor=#FF6666;endArrow=none;endFill=0;strokeWidth=2;strokeColor=#4D4D4D;" parent="1" source="12" edge="1">
                    <mxGeometry relative="1" as="geometry">
                        <mxPoint x="796.8333333333333" y="350" as="targetPoint"/>
                    </mxGeometry>
                </mxCell>
                <mxCell id="132" style="edgeStyle=none;html=1;exitX=0.5;exitY=0;exitDx=0;exitDy=0;fontColor=#FF6666;endArrow=none;endFill=0;strokeWidth=2;strokeColor=#4D4D4D;" parent="1" source="13" edge="1">
                    <mxGeometry relative="1" as="geometry">
                        <mxPoint x="806.8333333333333" y="380" as="targetPoint"/>
                    </mxGeometry>
                </mxCell>
                <mxCell id="134" style="edgeStyle=none;html=1;exitX=0.5;exitY=0;exitDx=0;exitDy=0;fontColor=#FF6666;endArrow=none;endFill=0;strokeWidth=2;strokeColor=#4D4D4D;" parent="1" source="33" edge="1">
                    <mxGeometry relative="1" as="geometry">
                        <mxPoint x="826.2777777777778" y="380" as="targetPoint"/>
                    </mxGeometry>
                </mxCell>
                <mxCell id="135" style="edgeStyle=none;html=1;exitX=0.5;exitY=0;exitDx=0;exitDy=0;fontColor=#FF6666;endArrow=none;endFill=0;strokeWidth=2;strokeColor=#4D4D4D;" parent="1" source="34" edge="1">
                    <mxGeometry relative="1" as="geometry">
                        <mxPoint x="836.2777777777778" y="360" as="targetPoint"/>
                    </mxGeometry>
                </mxCell>
                <mxCell id="136" style="edgeStyle=none;html=1;exitX=0.5;exitY=0;exitDx=0;exitDy=0;fontColor=#FF6666;endArrow=none;endFill=0;strokeWidth=2;strokeColor=#4D4D4D;" parent="1" source="30" edge="1">
                    <mxGeometry relative="1" as="geometry">
                        <mxPoint x="846.2777777777778" y="380" as="targetPoint"/>
                    </mxGeometry>
                </mxCell>
                <mxCell id="137" style="edgeStyle=none;html=1;exitX=0.5;exitY=0;exitDx=0;exitDy=0;fontColor=#FF6666;endArrow=none;endFill=0;strokeWidth=2;strokeColor=#4D4D4D;" parent="1" source="29" edge="1">
                    <mxGeometry relative="1" as="geometry">
                        <mxPoint x="856.5555555555554" y="380" as="targetPoint"/>
                    </mxGeometry>
                </mxCell>
                <mxCell id="138" style="edgeStyle=none;html=1;exitX=0.5;exitY=0;exitDx=0;exitDy=0;fontColor=#FF6666;endArrow=none;endFill=0;strokeWidth=2;strokeColor=#4D4D4D;" parent="1" source="31" edge="1">
                    <mxGeometry relative="1" as="geometry">
                        <mxPoint x="866.5555555555554" y="370" as="targetPoint"/>
                    </mxGeometry>
                </mxCell>
                <mxCell id="140" style="edgeStyle=none;html=1;exitX=0.5;exitY=1;exitDx=0;exitDy=0;fontColor=#FF6666;endArrow=none;endFill=0;strokeWidth=2;strokeColor=#4D4D4D;" parent="1" source="25" edge="1">
                    <mxGeometry relative="1" as="geometry">
                        <mxPoint x="625.3333333333333" y="420" as="targetPoint"/>
                    </mxGeometry>
                </mxCell>
                <mxCell id="142" style="edgeStyle=none;html=1;exitX=0.5;exitY=1;exitDx=0;exitDy=0;fontColor=#FF6666;endArrow=none;endFill=0;strokeWidth=2;strokeColor=#4D4D4D;" parent="1" source="18" edge="1">
                    <mxGeometry relative="1" as="geometry">
                        <mxPoint x="686" y="430" as="targetPoint"/>
                    </mxGeometry>
                </mxCell>
                <mxCell id="144" style="edgeStyle=none;html=1;exitX=0.5;exitY=1;exitDx=0;exitDy=0;fontColor=#FF6666;endArrow=none;endFill=0;strokeWidth=2;strokeColor=#4D4D4D;" parent="1" source="35" edge="1">
                    <mxGeometry relative="1" as="geometry">
                        <mxPoint x="756.3333333333333" y="420" as="targetPoint"/>
                    </mxGeometry>
                </mxCell>
                <mxCell id="145" style="edgeStyle=none;html=1;exitX=0.5;exitY=1;exitDx=0;exitDy=0;fontColor=#FF6666;endArrow=none;endFill=0;strokeWidth=2;strokeColor=#4D4D4D;" parent="1" source="32" edge="1">
                    <mxGeometry relative="1" as="geometry">
                        <mxPoint x="816.3333333333333" y="440" as="targetPoint"/>
                    </mxGeometry>
                </mxCell>
                <mxCell id="146" style="edgeStyle=none;html=1;exitX=0.5;exitY=0;exitDx=0;exitDy=0;fontColor=#FF6666;endArrow=none;endFill=0;strokeWidth=2;strokeColor=#4D4D4D;" parent="1" source="20" edge="1">
                    <mxGeometry relative="1" as="geometry">
                        <mxPoint x="676" y="310" as="targetPoint"/>
                    </mxGeometry>
                </mxCell>
                <mxCell id="147" style="edgeStyle=none;html=1;exitX=0.5;exitY=1;exitDx=0;exitDy=0;fontColor=#FF6666;endArrow=none;endFill=0;strokeWidth=2;strokeColor=#4D4D4D;" parent="1" source="17" edge="1">
                    <mxGeometry relative="1" as="geometry">
                        <mxPoint x="696" y="410" as="targetPoint"/>
                    </mxGeometry>
                </mxCell>
                <mxCell id="148" value="" style="endArrow=blockThin;html=1;strokeWidth=1;fontColor=#FF6666;endFill=1;" parent="1" edge="1">
                    <mxGeometry width="50" height="50" relative="1" as="geometry">
                        <mxPoint x="589" y="408" as="sourcePoint"/>
                        <mxPoint x="589" y="290" as="targetPoint"/>
                    </mxGeometry>
                </mxCell>
                <mxCell id="149" value="" style="endArrow=blockThin;html=1;strokeColor=#000000;strokeWidth=1;fontColor=#FF6666;endFill=1;" parent="1" edge="1">
                    <mxGeometry width="50" height="50" relative="1" as="geometry">
                        <mxPoint x="583" y="401.6" as="sourcePoint"/>
                        <mxPoint x="890" y="402" as="targetPoint"/>
                    </mxGeometry>
                </mxCell>
                <mxCell id="150" value="Scores" style="text;html=1;strokeColor=none;fillColor=none;align=center;verticalAlign=middle;whiteSpace=wrap;rounded=0;fontColor=#000000;rotation=-90;fontSize=13;" parent="1" vertex="1">
                    <mxGeometry x="520" y="340" width="100" height="20" as="geometry"/>
                </mxCell>
                <mxCell id="217" value="" style="endArrow=blockThin;html=1;strokeWidth=1;fontColor=#FF6666;endFill=1;" parent="1" edge="1">
                    <mxGeometry width="50" height="50" relative="1" as="geometry">
                        <mxPoint x="1156" y="379" as="sourcePoint"/>
                        <mxPoint x="1157" y="290" as="targetPoint"/>
                    </mxGeometry>
                </mxCell>
                <mxCell id="218" value="" style="endArrow=blockThin;html=1;strokeColor=#000000;strokeWidth=1;fontColor=#FF6666;endFill=1;" parent="1" edge="1">
                    <mxGeometry width="50" height="50" relative="1" as="geometry">
                        <mxPoint x="1150" y="372.6" as="sourcePoint"/>
                        <mxPoint x="1287" y="373" as="targetPoint"/>
                    </mxGeometry>
                </mxCell>
                <mxCell id="219" value="Score Distribution" style="text;html=1;strokeColor=none;fillColor=none;align=center;verticalAlign=middle;whiteSpace=wrap;rounded=0;fontColor=#000000;rotation=0;fontSize=13;" parent="1" vertex="1">
                    <mxGeometry x="1167" y="376.6" width="100" height="20" as="geometry"/>
                </mxCell>
                <mxCell id="220" value="" style="endArrow=none;html=1;strokeColor=#b85450;strokeWidth=2;fontSize=11;fontColor=#000000;fillColor=#f8cecc;" parent="1" edge="1">
                    <mxGeometry width="50" height="50" relative="1" as="geometry">
                        <mxPoint x="1157" y="372.6" as="sourcePoint"/>
                        <mxPoint x="1277" y="373" as="targetPoint"/>
                        <Array as="points">
                            <mxPoint x="1177" y="360"/>
                            <mxPoint x="1187" y="340"/>
                            <mxPoint x="1197" y="310"/>
                            <mxPoint x="1207" y="320"/>
                            <mxPoint x="1217" y="350"/>
                            <mxPoint x="1237" y="370"/>
                            <mxPoint x="1257" y="350"/>
                            <mxPoint x="1267" y="370"/>
                        </Array>
                    </mxGeometry>
                </mxCell>
                <mxCell id="225" style="edgeStyle=orthogonalEdgeStyle;sketch=1;html=1;strokeColor=#000000;strokeWidth=1;fontSize=11;fontColor=#000000;endArrow=blockThin;endFill=1;curved=1;curveFitting=1;jiggle=2;" parent="1" source="224" edge="1">
                    <mxGeometry relative="1" as="geometry">
                        <mxPoint x="670" y="300" as="targetPoint"/>
                    </mxGeometry>
                </mxCell>
                <mxCell id="224" value="Initial seed" style="text;html=1;strokeColor=none;fillColor=none;align=center;verticalAlign=middle;whiteSpace=wrap;rounded=0;fontSize=13;fontColor=#000000;" parent="1" vertex="1">
                    <mxGeometry x="720" y="260" width="70" height="20" as="geometry"/>
                </mxCell>
                <mxCell id="229" value="" style="endArrow=none;html=1;strokeColor=#b85450;strokeWidth=4;fontSize=11;fontColor=#000000;fillColor=#f8cecc;" parent="1" edge="1">
                    <mxGeometry width="50" height="50" relative="1" as="geometry">
                        <mxPoint x="1129" y="575" as="sourcePoint"/>
                        <mxPoint x="1171" y="575" as="targetPoint"/>
                    </mxGeometry>
                </mxCell>
                <mxCell id="230" value="" style="group;" parent="1" vertex="1" connectable="0">
                    <mxGeometry x="1070" y="660" width="281.59999999999997" height="12.600000000000023" as="geometry"/>
                </mxCell>
                <mxCell id="231" value="&lt;font style=&quot;font-size: 14px&quot;&gt;&lt;b&gt;A&lt;/b&gt;&lt;/font&gt;" style="text;html=1;align=center;verticalAlign=middle;whiteSpace=wrap;rounded=0;fontColor=#97D077;" parent="230" vertex="1">
                    <mxGeometry x="131.2000000000001" width="10.2" height="12.6" as="geometry"/>
                </mxCell>
                <mxCell id="232" value="&lt;font style=&quot;font-size: 14px&quot;&gt;&lt;b&gt;A&lt;/b&gt;&lt;/font&gt;" style="text;html=1;align=center;verticalAlign=middle;whiteSpace=wrap;rounded=0;fontColor=#97D077;" parent="230" vertex="1">
                    <mxGeometry x="121.00000000000006" width="10.2" height="12.6" as="geometry"/>
                </mxCell>
                <mxCell id="233" value="&lt;font style=&quot;font-size: 14px&quot;&gt;&lt;b&gt;G&lt;/b&gt;&lt;/font&gt;" style="text;html=1;strokeColor=none;fillColor=none;align=center;verticalAlign=middle;whiteSpace=wrap;rounded=0;fontColor=#FFB570;" parent="230" vertex="1">
                    <mxGeometry x="141.39999999999992" width="10" height="12.6" as="geometry"/>
                </mxCell>
                <mxCell id="234" value="&lt;font style=&quot;font-size: 14px&quot;&gt;&lt;b&gt;C&lt;/b&gt;&lt;/font&gt;" style="text;html=1;strokeColor=none;fillColor=none;align=center;verticalAlign=middle;whiteSpace=wrap;rounded=0;fontColor=#7EA6E0;" parent="230" vertex="1">
                    <mxGeometry x="151.39999999999992" width="10" height="12.6" as="geometry"/>
                </mxCell>
                <mxCell id="235" value="" style="group;" parent="230" connectable="0" vertex="1">
                    <mxGeometry x="171.39999999999992" width="50.39999999999998" height="12.600000000000023" as="geometry"/>
                </mxCell>
                <mxCell id="236" value="&lt;font style=&quot;font-size: 14px&quot;&gt;&lt;b&gt;A&lt;/b&gt;&lt;/font&gt;" style="text;html=1;align=center;verticalAlign=middle;whiteSpace=wrap;rounded=0;fontColor=#97D077;" parent="235" vertex="1">
                    <mxGeometry x="10.199999999999989" width="10.2" height="12.6" as="geometry"/>
                </mxCell>
                <mxCell id="237" value="&lt;font style=&quot;font-size: 14px&quot;&gt;&lt;b&gt;A&lt;/b&gt;&lt;/font&gt;" style="text;html=1;align=center;verticalAlign=middle;whiteSpace=wrap;rounded=0;fontColor=#97D077;" parent="235" vertex="1">
                    <mxGeometry width="10.2" height="12.6" as="geometry"/>
                </mxCell>
                <mxCell id="238" value="&lt;font style=&quot;font-size: 14px&quot;&gt;&lt;b&gt;G&lt;/b&gt;&lt;/font&gt;" style="text;html=1;strokeColor=none;fillColor=none;align=center;verticalAlign=middle;whiteSpace=wrap;rounded=0;fontColor=#FFB570;" parent="235" vertex="1">
                    <mxGeometry x="20.399999999999977" width="10" height="12.6" as="geometry"/>
                </mxCell>
                <mxCell id="239" value="&lt;font style=&quot;font-size: 14px&quot;&gt;&lt;b&gt;C&lt;/b&gt;&lt;/font&gt;" style="text;html=1;strokeColor=none;fillColor=none;align=center;verticalAlign=middle;whiteSpace=wrap;rounded=0;fontColor=#7EA6E0;" parent="235" vertex="1">
                    <mxGeometry x="30.399999999999977" width="10" height="12.6" as="geometry"/>
                </mxCell>
                <mxCell id="240" value="&lt;font style=&quot;font-size: 14px&quot;&gt;&lt;b&gt;U&lt;/b&gt;&lt;/font&gt;" style="text;html=1;strokeColor=none;fillColor=none;align=center;verticalAlign=middle;whiteSpace=wrap;rounded=0;fontColor=#EA6B66;" parent="235" vertex="1">
                    <mxGeometry x="40.39999999999998" width="10" height="12.6" as="geometry"/>
                </mxCell>
                <mxCell id="241" value="" style="group;" parent="230" connectable="0" vertex="1">
                    <mxGeometry x="60.599999999999966" width="60.39999999999998" height="12.600000000000023" as="geometry"/>
                </mxCell>
                <mxCell id="242" value="&lt;font style=&quot;font-size: 14px&quot;&gt;&lt;b&gt;G&lt;/b&gt;&lt;/font&gt;" style="text;html=1;strokeColor=none;fillColor=none;align=center;verticalAlign=middle;whiteSpace=wrap;rounded=0;fontColor=#FFB570;" parent="241" vertex="1">
                    <mxGeometry width="10" height="12.6" as="geometry"/>
                </mxCell>
                <mxCell id="243" value="&lt;font style=&quot;font-size: 14px&quot;&gt;&lt;b&gt;C&lt;/b&gt;&lt;/font&gt;" style="text;html=1;strokeColor=none;fillColor=none;align=center;verticalAlign=middle;whiteSpace=wrap;rounded=0;fontColor=#7EA6E0;" parent="241" vertex="1">
                    <mxGeometry x="10" width="10" height="12.6" as="geometry"/>
                </mxCell>
                <mxCell id="244" value="&lt;font style=&quot;font-size: 14px&quot;&gt;&lt;b&gt;A&lt;/b&gt;&lt;/font&gt;" style="text;html=1;align=center;verticalAlign=middle;whiteSpace=wrap;rounded=0;fontColor=#97D077;" parent="241" vertex="1">
                    <mxGeometry x="40.19999999999999" width="10.2" height="12.6" as="geometry"/>
                </mxCell>
                <mxCell id="245" value="&lt;font style=&quot;font-size: 14px&quot;&gt;&lt;b&gt;A&lt;/b&gt;&lt;/font&gt;" style="text;html=1;align=center;verticalAlign=middle;whiteSpace=wrap;rounded=0;fontColor=#97D077;" parent="241" vertex="1">
                    <mxGeometry x="30" width="10.2" height="12.6" as="geometry"/>
                </mxCell>
                <mxCell id="246" value="&lt;font style=&quot;font-size: 14px&quot;&gt;&lt;b&gt;G&lt;/b&gt;&lt;/font&gt;" style="text;html=1;strokeColor=none;fillColor=none;align=center;verticalAlign=middle;whiteSpace=wrap;rounded=0;fontColor=#FFB570;" parent="241" vertex="1">
                    <mxGeometry x="50.39999999999998" width="10" height="12.6" as="geometry"/>
                </mxCell>
                <mxCell id="247" value="&lt;font style=&quot;font-size: 14px&quot;&gt;&lt;b&gt;U&lt;/b&gt;&lt;/font&gt;" style="text;html=1;strokeColor=none;fillColor=none;align=center;verticalAlign=middle;whiteSpace=wrap;rounded=0;fontColor=#EA6B66;" parent="241" vertex="1">
                    <mxGeometry x="20.000000000000057" width="10" height="12.6" as="geometry"/>
                </mxCell>
                <mxCell id="248" value="" style="group;" parent="230" connectable="0" vertex="1">
                    <mxGeometry x="221.2" width="60.39999999999998" height="12.600000000000023" as="geometry"/>
                </mxCell>
                <mxCell id="249" value="&lt;font style=&quot;font-size: 14px&quot;&gt;&lt;b&gt;A&lt;/b&gt;&lt;/font&gt;" style="text;html=1;align=center;verticalAlign=middle;whiteSpace=wrap;rounded=0;fontColor=#97D077;" parent="248" vertex="1">
                    <mxGeometry x="40.19999999999999" width="10.2" height="12.6" as="geometry"/>
                </mxCell>
                <mxCell id="250" value="&lt;font style=&quot;font-size: 14px&quot;&gt;&lt;b&gt;A&lt;/b&gt;&lt;/font&gt;" style="text;html=1;align=center;verticalAlign=middle;whiteSpace=wrap;rounded=0;fontColor=#97D077;" parent="248" vertex="1">
                    <mxGeometry x="30" width="10.2" height="12.6" as="geometry"/>
                </mxCell>
                <mxCell id="251" value="&lt;font style=&quot;font-size: 14px&quot;&gt;&lt;b&gt;G&lt;/b&gt;&lt;/font&gt;" style="text;html=1;strokeColor=none;fillColor=none;align=center;verticalAlign=middle;whiteSpace=wrap;rounded=0;fontColor=#FFB570;" parent="248" vertex="1">
                    <mxGeometry x="50.39999999999998" width="10" height="12.6" as="geometry"/>
                </mxCell>
                <mxCell id="252" value="&lt;font style=&quot;font-size: 14px&quot;&gt;&lt;b&gt;U&lt;/b&gt;&lt;/font&gt;" style="text;html=1;strokeColor=none;fillColor=none;align=center;verticalAlign=middle;whiteSpace=wrap;rounded=0;fontColor=#EA6B66;" parent="248" vertex="1">
                    <mxGeometry x="-2.842170943040401e-14" width="10" height="12.6" as="geometry"/>
                </mxCell>
                <mxCell id="253" value="&lt;font style=&quot;font-size: 14px&quot;&gt;&lt;b&gt;U&lt;/b&gt;&lt;/font&gt;" style="text;html=1;strokeColor=none;fillColor=none;align=center;verticalAlign=middle;whiteSpace=wrap;rounded=0;fontColor=#EA6B66;" parent="248" vertex="1">
                    <mxGeometry x="10" width="10" height="12.6" as="geometry"/>
                </mxCell>
                <mxCell id="254" value="&lt;font style=&quot;font-size: 14px&quot;&gt;&lt;b&gt;U&lt;/b&gt;&lt;/font&gt;" style="text;html=1;strokeColor=none;fillColor=none;align=center;verticalAlign=middle;whiteSpace=wrap;rounded=0;fontColor=#EA6B66;" parent="248" vertex="1">
                    <mxGeometry x="20" width="10" height="12.6" as="geometry"/>
                </mxCell>
                <mxCell id="255" value="&lt;font style=&quot;font-size: 14px&quot;&gt;&lt;b&gt;U&lt;/b&gt;&lt;/font&gt;" style="text;html=1;strokeColor=none;fillColor=none;align=center;verticalAlign=middle;whiteSpace=wrap;rounded=0;fontColor=#EA6B66;" parent="230" vertex="1">
                    <mxGeometry x="161.39999999999992" width="10" height="12.6" as="geometry"/>
                </mxCell>
                <mxCell id="256" value="&lt;font style=&quot;font-size: 14px&quot;&gt;&lt;b&gt;A&lt;/b&gt;&lt;/font&gt;" style="text;html=1;align=center;verticalAlign=middle;whiteSpace=wrap;rounded=0;fontColor=#97D077;" parent="230" vertex="1">
                    <mxGeometry x="10.199999999999989" width="10.2" height="12.6" as="geometry"/>
                </mxCell>
                <mxCell id="257" value="&lt;font style=&quot;font-size: 14px&quot;&gt;&lt;b&gt;A&lt;/b&gt;&lt;/font&gt;" style="text;html=1;align=center;verticalAlign=middle;whiteSpace=wrap;rounded=0;fontColor=#97D077;" parent="230" vertex="1">
                    <mxGeometry width="10.2" height="12.6" as="geometry"/>
                </mxCell>
                <mxCell id="258" value="&lt;font style=&quot;font-size: 14px&quot;&gt;&lt;b&gt;G&lt;/b&gt;&lt;/font&gt;" style="text;html=1;strokeColor=none;fillColor=none;align=center;verticalAlign=middle;whiteSpace=wrap;rounded=0;fontColor=#FFB570;" parent="230" vertex="1">
                    <mxGeometry x="20.399999999999977" width="10" height="12.6" as="geometry"/>
                </mxCell>
                <mxCell id="259" value="&lt;font style=&quot;font-size: 14px&quot;&gt;&lt;b&gt;C&lt;/b&gt;&lt;/font&gt;" style="text;html=1;strokeColor=none;fillColor=none;align=center;verticalAlign=middle;whiteSpace=wrap;rounded=0;fontColor=#7EA6E0;" parent="230" vertex="1">
                    <mxGeometry x="30.399999999999977" width="10" height="12.6" as="geometry"/>
                </mxCell>
                <mxCell id="260" value="&lt;font style=&quot;font-size: 14px&quot;&gt;&lt;b&gt;A&lt;/b&gt;&lt;/font&gt;" style="text;html=1;align=center;verticalAlign=middle;whiteSpace=wrap;rounded=0;fontColor=#97D077;" parent="230" vertex="1">
                    <mxGeometry x="50.39999999999998" width="10.2" height="12.6" as="geometry"/>
                </mxCell>
                <mxCell id="261" value="&lt;font style=&quot;font-size: 14px&quot;&gt;&lt;b&gt;U&lt;/b&gt;&lt;/font&gt;" style="text;html=1;strokeColor=none;fillColor=none;align=center;verticalAlign=middle;whiteSpace=wrap;rounded=0;fontColor=#EA6B66;" parent="230" vertex="1">
                    <mxGeometry x="40.400000000000034" width="10" height="12.6" as="geometry"/>
                </mxCell>
                <mxCell id="262" style="edgeStyle=none;html=1;exitX=0.5;exitY=0;exitDx=0;exitDy=0;fontColor=#FF6666;endArrow=none;endFill=0;strokeWidth=2;strokeColor=#4D4D4D;" parent="1" source="257" edge="1">
                    <mxGeometry relative="1" as="geometry">
                        <mxPoint x="1075" y="630" as="targetPoint"/>
                    </mxGeometry>
                </mxCell>
                <mxCell id="263" style="edgeStyle=none;html=1;exitX=0.5;exitY=0;exitDx=0;exitDy=0;fontColor=#FF6666;endArrow=none;endFill=0;strokeWidth=2;strokeColor=#4D4D4D;" parent="1" source="256" edge="1">
                    <mxGeometry relative="1" as="geometry">
                        <mxPoint x="1085" y="650" as="targetPoint"/>
                    </mxGeometry>
                </mxCell>
                <mxCell id="264" style="edgeStyle=none;html=1;exitX=0.5;exitY=0;exitDx=0;exitDy=0;fontColor=#FF6666;endArrow=none;endFill=0;strokeWidth=2;strokeColor=#4D4D4D;" parent="1" source="258" edge="1">
                    <mxGeometry relative="1" as="geometry">
                        <mxPoint x="1095.3589743589746" y="640" as="targetPoint"/>
                    </mxGeometry>
                </mxCell>
                <mxCell id="265" style="edgeStyle=none;html=1;exitX=0.5;exitY=0;exitDx=0;exitDy=0;fontColor=#FF6666;endArrow=none;endFill=0;strokeWidth=2;strokeColor=#4D4D4D;" parent="1" source="261" edge="1">
                    <mxGeometry relative="1" as="geometry">
                        <mxPoint x="1115.3589743589746" y="590" as="targetPoint"/>
                    </mxGeometry>
                </mxCell>
                <mxCell id="266" style="edgeStyle=none;html=1;exitX=0.5;exitY=0;exitDx=0;exitDy=0;fontColor=#FF6666;endArrow=none;endFill=0;strokeWidth=2;strokeColor=#4D4D4D;" parent="1" source="260" edge="1">
                    <mxGeometry relative="1" as="geometry">
                        <mxPoint x="1125.6153846153848" y="600" as="targetPoint"/>
                    </mxGeometry>
                </mxCell>
                <mxCell id="267" style="edgeStyle=none;html=1;exitX=0.5;exitY=0;exitDx=0;exitDy=0;fontColor=#FF6666;endArrow=none;endFill=0;strokeWidth=2;strokeColor=#4D4D4D;" parent="1" source="242" edge="1">
                    <mxGeometry relative="1" as="geometry">
                        <mxPoint x="1135.6153846153848" y="590" as="targetPoint"/>
                    </mxGeometry>
                </mxCell>
                <mxCell id="268" style="edgeStyle=none;html=1;exitX=0.5;exitY=0;exitDx=0;exitDy=0;fontColor=#FF6666;endArrow=none;endFill=0;strokeWidth=2;strokeColor=#4D4D4D;" parent="1" source="243" edge="1">
                    <mxGeometry relative="1" as="geometry">
                        <mxPoint x="1146" y="580" as="targetPoint"/>
                    </mxGeometry>
                </mxCell>
                <mxCell id="269" style="edgeStyle=none;html=1;exitX=0.5;exitY=0;exitDx=0;exitDy=0;fontColor=#FF6666;endArrow=none;endFill=0;strokeWidth=2;strokeColor=#4D4D4D;" parent="1" source="246" edge="1">
                    <mxGeometry relative="1" as="geometry">
                        <mxPoint x="1185.871794871795" y="650" as="targetPoint"/>
                    </mxGeometry>
                </mxCell>
                <mxCell id="270" style="edgeStyle=none;html=1;exitX=0.5;exitY=0;exitDx=0;exitDy=0;fontColor=#FF6666;endArrow=none;endFill=0;strokeWidth=2;strokeColor=#4D4D4D;" parent="1" source="232" edge="1">
                    <mxGeometry relative="1" as="geometry">
                        <mxPoint x="1196.128205128205" y="630" as="targetPoint"/>
                    </mxGeometry>
                </mxCell>
                <mxCell id="271" style="edgeStyle=none;html=1;exitX=0.5;exitY=0;exitDx=0;exitDy=0;fontColor=#FF6666;endArrow=none;endFill=0;strokeWidth=2;strokeColor=#4D4D4D;" parent="1" source="231" edge="1">
                    <mxGeometry relative="1" as="geometry">
                        <mxPoint x="1206" y="600" as="targetPoint"/>
                    </mxGeometry>
                </mxCell>
                <mxCell id="272" style="edgeStyle=none;html=1;exitX=0.5;exitY=0;exitDx=0;exitDy=0;fontColor=#FF6666;endArrow=none;endFill=0;strokeWidth=2;strokeColor=#4D4D4D;" parent="1" source="233" edge="1">
                    <mxGeometry relative="1" as="geometry">
                        <mxPoint x="1216" y="600" as="targetPoint"/>
                    </mxGeometry>
                </mxCell>
                <mxCell id="273" style="edgeStyle=none;html=1;exitX=0.5;exitY=0;exitDx=0;exitDy=0;fontColor=#FF6666;endArrow=none;endFill=0;strokeWidth=2;strokeColor=#4D4D4D;" parent="1" source="234" edge="1">
                    <mxGeometry relative="1" as="geometry">
                        <mxPoint x="1226.3846153846152" y="650" as="targetPoint"/>
                    </mxGeometry>
                </mxCell>
                <mxCell id="274" style="edgeStyle=none;html=1;exitX=0.5;exitY=0;exitDx=0;exitDy=0;fontColor=#FF6666;endArrow=none;endFill=0;strokeWidth=2;strokeColor=#4D4D4D;" parent="1" source="237" edge="1">
                    <mxGeometry relative="1" as="geometry">
                        <mxPoint x="1246.5555555555557" y="640" as="targetPoint"/>
                    </mxGeometry>
                </mxCell>
                <mxCell id="275" style="edgeStyle=none;html=1;exitX=0.5;exitY=0;exitDx=0;exitDy=0;fontColor=#FF6666;endArrow=none;endFill=0;strokeWidth=2;strokeColor=#4D4D4D;" parent="1" source="236" edge="1">
                    <mxGeometry relative="1" as="geometry">
                        <mxPoint x="1256.833333333333" y="650" as="targetPoint"/>
                    </mxGeometry>
                </mxCell>
                <mxCell id="276" style="edgeStyle=none;html=1;exitX=0.5;exitY=0;exitDx=0;exitDy=0;fontColor=#FF6666;endArrow=none;endFill=0;strokeWidth=2;strokeColor=#4D4D4D;" parent="1" source="238" edge="1">
                    <mxGeometry relative="1" as="geometry">
                        <mxPoint x="1266.833333333333" y="640" as="targetPoint"/>
                    </mxGeometry>
                </mxCell>
                <mxCell id="277" style="edgeStyle=none;html=1;exitX=0.5;exitY=0;exitDx=0;exitDy=0;fontColor=#FF6666;endArrow=none;endFill=0;strokeWidth=2;strokeColor=#4D4D4D;" parent="1" source="239" edge="1">
                    <mxGeometry relative="1" as="geometry">
                        <mxPoint x="1276.833333333333" y="620" as="targetPoint"/>
                    </mxGeometry>
                </mxCell>
                <mxCell id="278" style="edgeStyle=none;html=1;exitX=0.5;exitY=0;exitDx=0;exitDy=0;fontColor=#FF6666;endArrow=none;endFill=0;strokeWidth=2;strokeColor=#4D4D4D;" parent="1" source="240" edge="1">
                    <mxGeometry relative="1" as="geometry">
                        <mxPoint x="1286.833333333333" y="650" as="targetPoint"/>
                    </mxGeometry>
                </mxCell>
                <mxCell id="279" style="edgeStyle=none;html=1;exitX=0.5;exitY=0;exitDx=0;exitDy=0;fontColor=#FF6666;endArrow=none;endFill=0;strokeWidth=2;strokeColor=#4D4D4D;" parent="1" source="253" edge="1">
                    <mxGeometry relative="1" as="geometry">
                        <mxPoint x="1306.2777777777778" y="650" as="targetPoint"/>
                    </mxGeometry>
                </mxCell>
                <mxCell id="280" style="edgeStyle=none;html=1;exitX=0.5;exitY=0;exitDx=0;exitDy=0;fontColor=#FF6666;endArrow=none;endFill=0;strokeWidth=2;strokeColor=#4D4D4D;" parent="1" source="254" edge="1">
                    <mxGeometry relative="1" as="geometry">
                        <mxPoint x="1316.2777777777778" y="630" as="targetPoint"/>
                    </mxGeometry>
                </mxCell>
                <mxCell id="281" style="edgeStyle=none;html=1;exitX=0.5;exitY=0;exitDx=0;exitDy=0;fontColor=#FF6666;endArrow=none;endFill=0;strokeWidth=2;strokeColor=#4D4D4D;" parent="1" source="250" edge="1">
                    <mxGeometry relative="1" as="geometry">
                        <mxPoint x="1326.2777777777778" y="650" as="targetPoint"/>
                    </mxGeometry>
                </mxCell>
                <mxCell id="282" style="edgeStyle=none;html=1;exitX=0.5;exitY=0;exitDx=0;exitDy=0;fontColor=#FF6666;endArrow=none;endFill=0;strokeWidth=2;strokeColor=#4D4D4D;" parent="1" source="249" edge="1">
                    <mxGeometry relative="1" as="geometry">
                        <mxPoint x="1336.5555555555557" y="650" as="targetPoint"/>
                    </mxGeometry>
                </mxCell>
                <mxCell id="283" style="edgeStyle=none;html=1;exitX=0.5;exitY=0;exitDx=0;exitDy=0;fontColor=#FF6666;endArrow=none;endFill=0;strokeWidth=2;strokeColor=#4D4D4D;" parent="1" source="251" edge="1">
                    <mxGeometry relative="1" as="geometry">
                        <mxPoint x="1346.5555555555557" y="640" as="targetPoint"/>
                    </mxGeometry>
                </mxCell>
                <mxCell id="284" style="edgeStyle=none;html=1;exitX=0.5;exitY=1;exitDx=0;exitDy=0;fontColor=#FF6666;endArrow=none;endFill=0;strokeWidth=2;strokeColor=#4D4D4D;" parent="1" source="259" edge="1">
                    <mxGeometry relative="1" as="geometry">
                        <mxPoint x="1105.333333333333" y="690" as="targetPoint"/>
                    </mxGeometry>
                </mxCell>
                <mxCell id="285" style="edgeStyle=none;html=1;exitX=0.5;exitY=1;exitDx=0;exitDy=0;fontColor=#FF6666;endArrow=none;endFill=0;strokeWidth=2;strokeColor=#4D4D4D;" parent="1" source="245" edge="1">
                    <mxGeometry relative="1" as="geometry">
                        <mxPoint x="1166" y="700" as="targetPoint"/>
                    </mxGeometry>
                </mxCell>
                <mxCell id="286" style="edgeStyle=none;html=1;exitX=0.5;exitY=1;exitDx=0;exitDy=0;fontColor=#FF6666;endArrow=none;endFill=0;strokeWidth=2;strokeColor=#4D4D4D;" parent="1" source="255" edge="1">
                    <mxGeometry relative="1" as="geometry">
                        <mxPoint x="1236.333333333333" y="690" as="targetPoint"/>
                    </mxGeometry>
                </mxCell>
                <mxCell id="287" style="edgeStyle=none;html=1;exitX=0.5;exitY=1;exitDx=0;exitDy=0;fontColor=#FF6666;endArrow=none;endFill=0;strokeWidth=2;strokeColor=#4D4D4D;" parent="1" source="252" edge="1">
                    <mxGeometry relative="1" as="geometry">
                        <mxPoint x="1296.333333333333" y="710" as="targetPoint"/>
                    </mxGeometry>
                </mxCell>
                <mxCell id="288" style="edgeStyle=none;html=1;exitX=0.5;exitY=0;exitDx=0;exitDy=0;fontColor=#FF6666;endArrow=none;endFill=0;strokeWidth=2;strokeColor=#4D4D4D;" parent="1" source="247" edge="1">
                    <mxGeometry relative="1" as="geometry">
                        <mxPoint x="1156" y="580" as="targetPoint"/>
                    </mxGeometry>
                </mxCell>
                <mxCell id="289" style="edgeStyle=none;html=1;exitX=0.5;exitY=1;exitDx=0;exitDy=0;fontColor=#FF6666;endArrow=none;endFill=0;strokeWidth=2;strokeColor=#4D4D4D;" parent="1" source="244" edge="1">
                    <mxGeometry relative="1" as="geometry">
                        <mxPoint x="1176" y="680" as="targetPoint"/>
                    </mxGeometry>
                </mxCell>
                <mxCell id="290" value="" style="endArrow=blockThin;html=1;strokeWidth=1;fontColor=#FF6666;endFill=1;" parent="1" edge="1">
                    <mxGeometry width="50" height="50" relative="1" as="geometry">
                        <mxPoint x="1070" y="679" as="sourcePoint"/>
                        <mxPoint x="1070" y="561" as="targetPoint"/>
                    </mxGeometry>
                </mxCell>
                <mxCell id="291" value="" style="endArrow=blockThin;html=1;strokeColor=#000000;strokeWidth=1;fontColor=#FF6666;endFill=1;" parent="1" edge="1">
                    <mxGeometry width="50" height="50" relative="1" as="geometry">
                        <mxPoint x="1063" y="671.5999999999999" as="sourcePoint"/>
                        <mxPoint x="1370" y="672" as="targetPoint"/>
                    </mxGeometry>
                </mxCell>
                <mxCell id="292" value="Scores" style="text;html=1;strokeColor=none;fillColor=none;align=center;verticalAlign=middle;whiteSpace=wrap;rounded=0;fontColor=#000000;rotation=-90;fontSize=13;" parent="1" vertex="1">
                    <mxGeometry x="1000" y="610" width="100" height="20" as="geometry"/>
                </mxCell>
                <mxCell id="293" style="edgeStyle=orthogonalEdgeStyle;sketch=1;html=1;strokeColor=#000000;strokeWidth=1;fontSize=11;fontColor=#000000;endArrow=blockThin;endFill=1;curved=1;curveFitting=1;jiggle=2;" parent="1" source="294" edge="1">
                    <mxGeometry relative="1" as="geometry">
                        <mxPoint x="1150" y="570" as="targetPoint"/>
                    </mxGeometry>
                </mxCell>
                <mxCell id="294" value="Extend" style="text;html=1;strokeColor=none;fillColor=none;align=center;verticalAlign=middle;whiteSpace=wrap;rounded=0;fontSize=13;fontColor=#000000;" parent="1" vertex="1">
                    <mxGeometry x="1200" y="530" width="60" height="20" as="geometry"/>
                </mxCell>
                <mxCell id="301" value="" style="endArrow=none;dashed=1;html=1;sketch=0;strokeColor=#b85450;strokeWidth=1;fontSize=11;fontColor=#000000;curved=1;fillColor=#f8cecc;" parent="1" edge="1">
                    <mxGeometry width="50" height="50" relative="1" as="geometry">
                        <mxPoint x="662" y="402" as="sourcePoint"/>
                        <mxPoint x="662" y="303" as="targetPoint"/>
                    </mxGeometry>
                </mxCell>
                <mxCell id="302" value="" style="endArrow=none;dashed=1;html=1;sketch=0;strokeColor=#b85450;strokeWidth=1;fontSize=11;fontColor=#000000;curved=1;fillColor=#f8cecc;" parent="1" edge="1">
                    <mxGeometry width="50" height="50" relative="1" as="geometry">
                        <mxPoint x="680" y="402" as="sourcePoint"/>
                        <mxPoint x="680" y="303" as="targetPoint"/>
                    </mxGeometry>
                </mxCell>
                <mxCell id="304" value="" style="endArrow=none;dashed=1;html=1;sketch=0;strokeColor=#b85450;strokeWidth=1;fontSize=11;fontColor=#000000;curved=1;fillColor=#f8cecc;" parent="1" edge="1">
                    <mxGeometry width="50" height="50" relative="1" as="geometry">
                        <mxPoint x="1130" y="672.6" as="sourcePoint"/>
                        <mxPoint x="1130" y="573.6" as="targetPoint"/>
                    </mxGeometry>
                </mxCell>
                <mxCell id="305" value="" style="endArrow=none;dashed=1;html=1;sketch=0;strokeColor=#b85450;strokeWidth=1;fontSize=11;fontColor=#000000;curved=1;fillColor=#f8cecc;" parent="1" edge="1">
                    <mxGeometry width="50" height="50" relative="1" as="geometry">
                        <mxPoint x="1170" y="672" as="sourcePoint"/>
                        <mxPoint x="1170" y="574" as="targetPoint"/>
                    </mxGeometry>
                </mxCell>
                <mxCell id="306" value="" style="endArrow=blockThin;startArrow=blockThin;html=1;sketch=0;strokeColor=#b85450;strokeWidth=1;fontSize=11;fontColor=#000000;curved=1;fillColor=#f8cecc;startFill=1;endFill=1;" parent="1" edge="1">
                    <mxGeometry width="50" height="50" relative="1" as="geometry">
                        <mxPoint x="1121" y="575" as="sourcePoint"/>
                        <mxPoint x="1179" y="575" as="targetPoint"/>
                    </mxGeometry>
                </mxCell>
                <mxCell id="309" value="" style="endArrow=classic;html=1;edgeStyle=orthogonalEdgeStyle;curved=1;sketch=1;curveFitting=1;jiggle=2;strokeWidth=3;" edge="1" parent="1">
                    <mxGeometry width="50" height="50" relative="1" as="geometry">
                        <mxPoint x="420" y="320" as="sourcePoint"/>
                        <mxPoint x="540" y="320" as="targetPoint"/>
                    </mxGeometry>
                </mxCell>
                <mxCell id="310" value="" style="endArrow=classic;html=1;edgeStyle=orthogonalEdgeStyle;curved=1;sketch=1;curveFitting=1;jiggle=2;strokeWidth=3;" edge="1" parent="1">
                    <mxGeometry width="50" height="50" relative="1" as="geometry">
                        <mxPoint x="920" y="320" as="sourcePoint"/>
                        <mxPoint x="1040" y="320" as="targetPoint"/>
                    </mxGeometry>
                </mxCell>
                <mxCell id="311" value="" style="endArrow=classic;html=1;edgeStyle=orthogonalEdgeStyle;curved=1;sketch=1;curveFitting=1;jiggle=2;strokeWidth=3;" edge="1" parent="1">
                    <mxGeometry width="50" height="50" relative="1" as="geometry">
                        <mxPoint x="1360" y="320" as="sourcePoint"/>
                        <mxPoint x="1720" y="320" as="targetPoint"/>
                    </mxGeometry>
                </mxCell>
                <mxCell id="314" value="" style="endArrow=classic;html=1;sketch=1;strokeWidth=3;fontSize=13;fontColor=#FF6666;curved=1;elbow=vertical;" edge="1" parent="1">
                    <mxGeometry width="50" height="50" relative="1" as="geometry">
                        <mxPoint x="1240" y="430" as="sourcePoint"/>
                        <mxPoint x="1240" y="500" as="targetPoint"/>
                    </mxGeometry>
                </mxCell>
                <mxCell id="315" value="" style="endArrow=classic;html=1;sketch=1;strokeWidth=3;fontSize=13;fontColor=#FF6666;curved=1;elbow=vertical;" edge="1" parent="1">
                    <mxGeometry width="50" height="50" relative="1" as="geometry">
                        <mxPoint x="1216.66" y="499.9999999999999" as="sourcePoint"/>
                        <mxPoint x="1216.66" y="429.9999999999999" as="targetPoint"/>
                    </mxGeometry>
                </mxCell>
                <mxCell id="317" value="" style="endArrow=classic;html=1;edgeStyle=orthogonalEdgeStyle;curved=1;sketch=1;curveFitting=1;jiggle=2;strokeWidth=3;" edge="1" parent="1">
                    <mxGeometry width="50" height="50" relative="1" as="geometry">
                        <mxPoint x="1600" y="320" as="sourcePoint"/>
                        <mxPoint x="750" y="230" as="targetPoint"/>
                        <Array as="points">
                            <mxPoint x="1680" y="320"/>
                            <mxPoint x="1680" y="140"/>
                            <mxPoint x="750" y="140"/>
                        </Array>
                    </mxGeometry>
                </mxCell>
                <mxCell id="319" value="&lt;font style=&quot;font-size: 17px;&quot;&gt;1. Select a&lt;br&gt;seed sequence&lt;/font&gt;" style="text;html=1;strokeColor=none;fillColor=none;align=center;verticalAlign=middle;whiteSpace=wrap;rounded=0;fontSize=13;fontColor=#000000;" vertex="1" parent="1">
                    <mxGeometry x="420" y="260" width="120" height="50" as="geometry"/>
                </mxCell>
                <mxCell id="320" value="&lt;span style=&quot;font-size: 17px;&quot;&gt;2. Check significance&lt;/span&gt;" style="text;html=1;strokeColor=none;fillColor=none;align=center;verticalAlign=middle;whiteSpace=wrap;rounded=0;fontSize=13;fontColor=#000000;" vertex="1" parent="1">
                    <mxGeometry x="920" y="260" width="120" height="50" as="geometry"/>
                </mxCell>
                <mxCell id="321" value="&lt;span style=&quot;font-size: 17px;&quot;&gt;3.&lt;b&gt; Significant?&lt;/b&gt;Extend up-and downstream&lt;/span&gt;" style="text;html=1;strokeColor=none;fillColor=none;align=center;verticalAlign=middle;whiteSpace=wrap;rounded=0;fontSize=13;fontColor=#000000;" vertex="1" parent="1">
                    <mxGeometry x="1250" y="430" width="150" height="70" as="geometry"/>
                </mxCell>
                <mxCell id="323" value="&lt;span style=&quot;font-size: 17px;&quot;&gt;4. Check significance&lt;/span&gt;" style="text;html=1;strokeColor=none;fillColor=none;align=center;verticalAlign=middle;whiteSpace=wrap;rounded=0;fontSize=13;fontColor=#000000;" vertex="1" parent="1">
                    <mxGeometry x="1050" y="440" width="150" height="50" as="geometry"/>
                </mxCell>
                <mxCell id="324" value="&lt;span style=&quot;font-size: 17px;&quot;&gt;5.&lt;b&gt;&amp;nbsp;Not Significant?&lt;br&gt;&lt;/b&gt;Report previous (significant) subsequence and select a new seed sequence. If no more seeds exists, the algorithm terminates.&amp;nbsp;&lt;/span&gt;" style="text;html=1;strokeColor=none;fillColor=none;align=center;verticalAlign=middle;whiteSpace=wrap;rounded=0;fontSize=13;fontColor=#000000;" vertex="1" parent="1">
                    <mxGeometry x="1360" y="326.6" width="370" height="83.4" as="geometry"/>
                </mxCell>
                <mxCell id="325" value="&lt;font color=&quot;#000000&quot;&gt;Bootstrap-test by sampling from score distributon&lt;/font&gt;" style="text;html=1;strokeColor=none;fillColor=none;align=center;verticalAlign=middle;whiteSpace=wrap;rounded=0;fontSize=17;fontColor=#FF6666;" vertex="1" parent="1">
                    <mxGeometry x="1107" y="255" width="220" height="30" as="geometry"/>
                </mxCell>
            </root>
        </mxGraphModel>
    </diagram>
</mxfile>